<svg width="23" height="16" viewBox="0 0 23 16" fill="none" xmlns="http://www.w3.org/2000/svg">
<path d="M21.9888 8.72116C22.5356 8.21335 22.5356 7.38866 21.9888 6.88085L14.9888 0.380844C14.4419 -0.126968 13.5538 -0.126968 13.0069 0.380844C12.46 0.888657 12.46 1.71335 13.0069 2.22116L17.6181 6.50303H1.40002C0.625645 6.50303 1.90735e-05 7.08397 1.90735e-05 7.80303C1.90735e-05 8.5221 0.625645 9.10303 1.40002 9.10303H17.6181L13.0069 13.3849C12.46 13.8927 12.46 14.7174 13.0069 15.2252C13.5538 15.733 14.4419 15.733 14.9888 15.2252L21.9888 8.72522V8.72116Z" fill="white"/>
</svg>
